<svg xmlns="http://www.w3.org/2000/svg" viewBox="0 0 1100 760" role="img" aria-labelledby="title desc">
  <title id="title">Human life route</title>
  <desc id="desc">A detailed human route with family, school, work, health and older generation scenes.</desc>
  <defs>
    <linearGradient id="bg" x1="0" x2="1" y1="0" y2="1">
      <stop offset="0" stop-color="#f0fff6"/>
      <stop offset="1" stop-color="#f5fbff"/>
    </linearGradient>
    <linearGradient id="line" x1="0" x2="1">
      <stop offset="0" stop-color="#20a675"/>
      <stop offset=".48" stop-color="#1769d2"/>
      <stop offset="1" stop-color="#d9574f"/>
    </linearGradient>
    <filter id="sh" x="-20%" y="-20%" width="140%" height="150%">
      <feDropShadow dx="0" dy="18" stdDeviation="18" flood-color="#17324d" flood-opacity=".16"/>
    </filter>
  </defs>
  <rect width="1100" height="760" rx="42" fill="url(#bg)"/>
  <path d="M90 570 C206 330 326 606 450 386 C556 198 670 486 784 284 C874 126 960 190 1010 122" fill="none" stroke="url(#line)" stroke-width="22" stroke-linecap="round"/>
  <path d="M100 594 C220 368 330 610 456 410 C560 238 680 504 790 316 C872 176 948 220 996 162" fill="none" stroke="#fff" stroke-width="5" stroke-dasharray="14 18" stroke-linecap="round"/>

  <g filter="url(#sh)">
    <rect x="72" y="470" width="174" height="150" rx="28" fill="#fff"/>
    <circle cx="126" cy="536" r="24" fill="#20a675"/>
    <circle cx="174" cy="536" r="20" fill="#1769d2"/>
    <circle cx="204" cy="560" r="15" fill="#f0a52b"/>
    <path d="M104 596 c18-46 70-46 88 0 M162 596 c14-34 52-34 66 0" fill="#e7f8ef"/>
  </g>
  <g filter="url(#sh)">
    <rect x="284" y="256" width="180" height="158" rx="28" fill="#fff"/>
    <path d="M324 332 h104 l-52-42z" fill="#1769d2"/>
    <rect x="336" y="332" width="80" height="48" fill="#edf7ff"/>
    <path d="M350 350 h52 M350 370 h36" stroke="#1769d2" stroke-width="6" stroke-linecap="round"/>
    <circle cx="420" cy="282" r="18" fill="#f0a52b"/>
  </g>
  <g filter="url(#sh)">
    <rect x="478" y="392" width="190" height="150" rx="28" fill="#fff"/>
    <rect x="526" y="464" width="96" height="44" rx="10" fill="#f0a52b"/>
    <path d="M548 464 v-48 h52 v48" fill="#f0a52b"/>
    <path d="M516 508 h118" stroke="#17324d" stroke-width="8" stroke-linecap="round"/>
    <circle cx="626" cy="426" r="18" fill="#1769d2"/>
  </g>
  <g filter="url(#sh)">
    <rect x="690" y="244" width="188" height="154" rx="28" fill="#fff"/>
    <rect x="738" y="302" width="92" height="58" rx="14" fill="#eef9f3"/>
    <path d="M784 290 v84 M742 332 h84" stroke="#20a675" stroke-width="10" stroke-linecap="round"/>
    <circle cx="842" cy="270" r="18" fill="#d9574f"/>
  </g>
  <g filter="url(#sh)">
    <rect x="870" y="100" width="176" height="154" rx="28" fill="#fff"/>
    <circle cx="932" cy="164" r="22" fill="#6b65b8"/>
    <circle cx="976" cy="164" r="18" fill="#20a675"/>
    <path d="M908 224 c12-42 60-42 74 0 M958 224 c10-34 42-34 54 0" fill="#f0f2ff"/>
    <path d="M914 132 h80" stroke="#d7e8f2" stroke-width="8" stroke-linecap="round"/>
  </g>
</svg>
