<svg xmlns="http://www.w3.org/2000/svg" viewBox="0 0 960 560" role="img" aria-label="Город, дороги, люди, бюджет и цифровая сеть как единая система развития">
  <defs>
    <linearGradient id="sky" x1="0" x2="1" y1="0" y2="1">
      <stop offset="0" stop-color="#dff2ff"/>
      <stop offset=".48" stop-color="#eef9f5"/>
      <stop offset="1" stop-color="#ffe9b4"/>
    </linearGradient>
    <linearGradient id="road" x1="0" x2="1">
      <stop offset="0" stop-color="#17324d"/>
      <stop offset="1" stop-color="#1769d2"/>
    </linearGradient>
    <filter id="soft" x="-20%" y="-20%" width="140%" height="140%">
      <feDropShadow dx="0" dy="18" stdDeviation="18" flood-color="#17324d" flood-opacity=".18"/>
    </filter>
  </defs>
  <rect width="960" height="560" fill="url(#sky)"/>
  <path d="M0 392C120 344 208 376 326 335c133-46 206-116 347-82 121 29 189 96 287 68v239H0Z" fill="#bfe3d6"/>
  <path d="M0 451c155-41 286-38 392-12 145 35 243 24 365-23 72-27 139-29 203-6v150H0Z" fill="#eef7fb"/>
  <g filter="url(#soft)">
    <rect x="88" y="198" width="82" height="178" rx="10" fill="#ffffff"/>
    <rect x="186" y="147" width="118" height="229" rx="12" fill="#eaf5fb"/>
    <rect x="324" y="222" width="88" height="154" rx="10" fill="#ffffff"/>
    <rect x="438" y="170" width="106" height="206" rx="12" fill="#edf8f2"/>
    <rect x="572" y="120" width="134" height="256" rx="14" fill="#ffffff"/>
    <rect x="730" y="210" width="92" height="166" rx="10" fill="#eaf5fb"/>
  </g>
  <g fill="#1769d2" opacity=".28">
    <rect x="110" y="226" width="18" height="18" rx="3"/>
    <rect x="140" y="226" width="18" height="18" rx="3"/>
    <rect x="214" y="178" width="20" height="20" rx="3"/>
    <rect x="250" y="178" width="20" height="20" rx="3"/>
    <rect x="468" y="204" width="22" height="22" rx="3"/>
    <rect x="610" y="158" width="24" height="24" rx="4"/>
    <rect x="650" y="158" width="24" height="24" rx="4"/>
  </g>
  <path d="M-20 535c196-87 336-105 473-84 95 15 170 50 264 31 67-13 133-52 263-46v124H-20Z" fill="url(#road)"/>
  <path d="M35 522c162-55 291-68 421-50 89 13 179 44 264 20 74-21 130-44 205-39" fill="none" stroke="#ffffff" stroke-width="8" stroke-linecap="round" stroke-dasharray="26 22" opacity=".86"/>
  <g filter="url(#soft)">
    <rect x="612" y="294" width="246" height="132" rx="22" fill="#ffffff"/>
    <path d="M636 379h42v-38h-42Zm58 0h42v-62h-42Zm58 0h42v-85h-42Z" fill="#20a675"/>
    <circle cx="804" cy="346" r="38" fill="none" stroke="#f0a52b" stroke-width="16"/>
    <path d="M804 308a38 38 0 0 1 38 38" fill="none" stroke="#1769d2" stroke-width="16" stroke-linecap="round"/>
  </g>
  <g stroke="#1769d2" stroke-width="4" stroke-linecap="round" opacity=".72">
    <path d="M182 112 314 86 476 118 636 78 792 122"/>
    <path d="M314 86v96M476 118v104M636 78v150"/>
  </g>
  <g fill="#1769d2">
    <circle cx="182" cy="112" r="10"/>
    <circle cx="314" cy="86" r="10"/>
    <circle cx="476" cy="118" r="10"/>
    <circle cx="636" cy="78" r="10"/>
    <circle cx="792" cy="122" r="10"/>
  </g>
  <g filter="url(#soft)">
    <rect x="64" y="60" width="230" height="84" rx="18" fill="#17324d"/>
    <circle cx="104" cy="102" r="22" fill="#f0a52b"/>
    <rect x="138" y="84" width="116" height="14" rx="7" fill="#ffffff" opacity=".9"/>
    <rect x="138" y="108" width="84" height="10" rx="5" fill="#cde4f6"/>
  </g>
  <g fill="#17324d">
    <circle cx="248" cy="416" r="16"/>
    <rect x="232" y="432" width="32" height="48" rx="16"/>
    <circle cx="302" cy="430" r="13"/>
    <rect x="289" y="443" width="26" height="39" rx="13"/>
    <circle cx="350" cy="410" r="18"/>
    <rect x="332" y="428" width="36" height="54" rx="18"/>
  </g>
  <path d="M0 0h960v560H0Z" fill="#0b1f35" opacity=".06"/>
</svg>
