<svg xmlns="http://www.w3.org/2000/svg" viewBox="0 0 720 420" role="img" aria-label="Медицинский центр, профилактика и здоровье">
  <rect width="720" height="420" fill="#fff0ef"/>
  <path d="M0 326c92-34 174-31 258-9 120 32 242 28 462-34v137H0Z" fill="#f2d7d5"/>
  <rect x="92" y="112" width="240" height="190" rx="20" fill="#ffffff"/>
  <path d="M190 150h44v44h44v44h-44v44h-44v-44h-44v-44h44Z" fill="#d9574f"/>
  <rect x="404" y="156" width="178" height="128" rx="18" fill="#ffffff"/>
  <path d="M430 222h34l20-42 34 84 24-42h34" fill="none" stroke="#20a675" stroke-width="10" stroke-linecap="round" stroke-linejoin="round"/>
  <circle cx="510" cy="322" r="24" fill="#17324d"/>
  <rect x="486" y="346" width="48" height="52" rx="24" fill="#17324d"/>
  <rect width="720" height="420" fill="#0b1f35" opacity=".05"/>
</svg>
