<svg xmlns="http://www.w3.org/2000/svg" viewBox="0 0 1200 760" role="img" aria-label="Большая медиа-сцена развития страны: город, транспорт, люди, технологии и данные">
  <defs>
    <linearGradient id="sky" x1="0" x2="1" y1="0" y2="1">
      <stop offset="0" stop-color="#b9dcf6"/>
      <stop offset=".42" stop-color="#d7eef0"/>
      <stop offset="1" stop-color="#ffdca5"/>
    </linearGradient>
    <linearGradient id="ground" x1="0" x2="1">
      <stop offset="0" stop-color="#17465c"/>
      <stop offset=".52" stop-color="#1f745f"/>
      <stop offset="1" stop-color="#2b587d"/>
    </linearGradient>
    <linearGradient id="glass" x1="0" x2="1" y1="0" y2="1">
      <stop offset="0" stop-color="#ffffff" stop-opacity=".94"/>
      <stop offset="1" stop-color="#d7eef9" stop-opacity=".86"/>
    </linearGradient>
    <filter id="photoShadow" x="-20%" y="-20%" width="140%" height="150%">
      <feDropShadow dx="0" dy="28" stdDeviation="26" flood-color="#071923" flood-opacity=".26"/>
    </filter>
  </defs>
  <rect width="1200" height="760" fill="url(#sky)"/>
  <circle cx="956" cy="126" r="74" fill="#ffe08a" opacity=".9"/>
  <path d="M0 472c160-90 304-101 465-58 178 47 303 37 483-53 111-55 181-54 252-22v421H0Z" fill="#94cfbf"/>
  <path d="M0 548c214-84 380-94 547-60 154 31 276 74 505 8 61-18 108-26 148-23v287H0Z" fill="#dcecf2"/>
  <g filter="url(#photoShadow)">
    <rect x="94" y="233" width="112" height="238" rx="18" fill="url(#glass)"/>
    <rect x="230" y="155" width="166" height="316" rx="20" fill="#f5fbff"/>
    <rect x="424" y="248" width="130" height="223" rx="18" fill="#eaf6fb"/>
    <rect x="592" y="186" width="170" height="285" rx="20" fill="#f8fffb"/>
    <rect x="794" y="260" width="122" height="211" rx="18" fill="#edf7ff"/>
  </g>
  <g opacity=".62">
    <rect x="126" y="271" width="26" height="28" rx="5" fill="#2684d9"/>
    <rect x="166" y="271" width="26" height="28" rx="5" fill="#2684d9"/>
    <rect x="268" y="196" width="30" height="32" rx="5" fill="#1f745f"/>
    <rect x="318" y="196" width="30" height="32" rx="5" fill="#1f745f"/>
    <rect x="636" y="228" width="32" height="34" rx="5" fill="#f0a52b"/>
    <rect x="690" y="228" width="32" height="34" rx="5" fill="#f0a52b"/>
  </g>
  <path d="M-40 687c211-116 391-143 563-107 129 27 231 90 386 45 89-26 161-59 331-55v90H-40Z" fill="url(#ground)"/>
  <path d="M60 670c160-58 304-75 455-48 126 23 245 74 394 36 82-21 153-47 254-44" fill="none" stroke="#fff" stroke-width="13" stroke-linecap="round" stroke-dasharray="48 34" opacity=".86"/>
  <g filter="url(#photoShadow)">
    <rect x="770" y="392" width="280" height="154" rx="30" fill="#102a43" opacity=".94"/>
    <text x="808" y="454" font-family="Arial, Helvetica, sans-serif" font-size="54" font-weight="700" fill="#ffffff">40+</text>
    <text x="918" y="453" font-family="Arial, Helvetica, sans-serif" font-size="28" font-weight="700" fill="#d7ebff">трлн</text>
    <rect x="810" y="486" width="178" height="16" rx="8" fill="#375870"/>
    <rect x="810" y="486" width="132" height="16" rx="8" fill="#41c28b"/>
  </g>
  <g filter="url(#photoShadow)">
    <rect x="126" y="86" width="284" height="104" rx="26" fill="#ffffff" opacity=".94"/>
    <circle cx="178" cy="138" r="26" fill="#1769d2"/>
    <path d="M224 118h130M224 149h92" stroke="#17324d" stroke-width="13" stroke-linecap="round"/>
  </g>
  <g stroke="#1769d2" stroke-width="6" stroke-linecap="round" opacity=".72">
    <path d="M168 222c136-88 246-112 392-62 128 44 232 31 356-56"/>
    <path d="M560 160v114M744 148v172M916 104v224"/>
  </g>
  <g fill="#1769d2">
    <circle cx="168" cy="222" r="14"/>
    <circle cx="560" cy="160" r="14"/>
    <circle cx="744" cy="148" r="14"/>
    <circle cx="916" cy="104" r="14"/>
  </g>
  <g fill="#102a43">
    <circle cx="290" cy="557" r="24"/>
    <rect x="266" y="581" width="48" height="78" rx="24"/>
    <circle cx="360" cy="536" r="30"/>
    <rect x="330" y="566" width="60" height="94" rx="30"/>
    <circle cx="430" cy="568" r="20"/>
    <rect x="410" y="588" width="40" height="66" rx="20"/>
  </g>
  <rect width="1200" height="760" fill="#071923" opacity=".08"/>
</svg>
