<svg xmlns="http://www.w3.org/2000/svg" viewBox="0 0 720 420" role="img" aria-label="Бизнес, данные, цифровые сервисы и экономическая аналитика">
  <defs>
    <linearGradient id="bg" x1="0" x2="1" y1="0" y2="1">
      <stop offset="0" stop-color="#fff2ce"/>
      <stop offset="1" stop-color="#e9f4ff"/>
    </linearGradient>
  </defs>
  <rect width="720" height="420" fill="url(#bg)"/>
  <rect x="70" y="96" width="222" height="230" rx="22" fill="#ffffff"/>
  <rect x="96" y="126" width="88" height="14" rx="7" fill="#17324d"/>
  <rect x="96" y="168" width="38" height="96" rx="8" fill="#f0a52b"/>
  <rect x="148" y="202" width="38" height="62" rx="8" fill="#20a675"/>
  <rect x="200" y="150" width="38" height="114" rx="8" fill="#1769d2"/>
  <rect x="344" y="118" width="112" height="170" rx="14" fill="#17324d"/>
  <rect x="472" y="118" width="112" height="170" rx="14" fill="#17324d"/>
  <g stroke="#8fd1ff" stroke-width="4" opacity=".9">
    <path d="M374 160h52M374 190h52M374 220h52M502 160h52M502 190h52M502 220h52"/>
  </g>
  <circle cx="600" cy="316" r="52" fill="none" stroke="#1769d2" stroke-width="18"/>
  <path d="M600 264a52 52 0 0 1 48 72" fill="none" stroke="#20a675" stroke-width="18" stroke-linecap="round"/>
  <path d="M0 346c94-18 182-18 264 0 124 27 218 35 456-24v98H0Z" fill="#f2e8d7"/>
  <rect width="720" height="420" fill="#0b1f35" opacity=".05"/>
</svg>
