<svg xmlns="http://www.w3.org/2000/svg" viewBox="0 0 720 420" role="img" aria-label="Городская среда, дороги, экология и региональная инфраструктура">
  <defs>
    <linearGradient id="bg" x1="0" x2="1" y1="0" y2="1">
      <stop offset="0" stop-color="#dff3ff"/>
      <stop offset="1" stop-color="#e9fff2"/>
    </linearGradient>
  </defs>
  <rect width="720" height="420" fill="url(#bg)"/>
  <path d="M0 310c94-46 196-44 292-10 100 36 172 26 264-21 64-32 112-34 164-18v159H0Z" fill="#b9e4dc"/>
  <rect x="68" y="132" width="80" height="176" rx="10" fill="#ffffff"/>
  <rect x="166" y="90" width="112" height="218" rx="12" fill="#eaf5fb"/>
  <rect x="306" y="156" width="82" height="152" rx="10" fill="#ffffff"/>
  <rect x="426" y="118" width="126" height="190" rx="12" fill="#eef8f2"/>
  <path d="M-20 374c154-50 282-59 397-33 86 19 174 46 302 10" fill="none" stroke="#17324d" stroke-width="36" stroke-linecap="round"/>
  <path d="M18 370c129-34 243-42 353-22 82 15 168 40 292 14" fill="none" stroke="#ffffff" stroke-width="8" stroke-linecap="round" stroke-dasharray="25 18"/>
  <g fill="#20a675">
    <circle cx="580" cy="296" r="34"/>
    <rect x="572" y="294" width="16" height="62" rx="8"/>
    <circle cx="632" cy="282" r="26"/>
    <rect x="626" y="282" width="12" height="58" rx="6"/>
  </g>
  <path d="M0 0h720v420H0Z" fill="#0b1f35" opacity=".05"/>
</svg>
