<svg xmlns="http://www.w3.org/2000/svg" viewBox="0 0 960 560" role="img" aria-label="Разрез здания с уровнями управления национальными проектами">
  <defs>
    <linearGradient id="bg" x1="0" x2="1" y1="0" y2="1">
      <stop offset="0" stop-color="#e9f6ff"/>
      <stop offset="1" stop-color="#f7fbef"/>
    </linearGradient>
    <filter id="shadow" x="-20%" y="-20%" width="140%" height="140%">
      <feDropShadow dx="0" dy="20" stdDeviation="20" flood-color="#17324d" flood-opacity=".18"/>
    </filter>
  </defs>
  <rect width="960" height="560" fill="url(#bg)"/>
  <path d="M60 486c142-42 271-37 386-12 118 26 220 21 336-24 58-22 112-25 178-6v116H60Z" fill="#d7eee5"/>
  <g filter="url(#shadow)">
    <path d="M174 144 492 52l318 92v330H174Z" fill="#ffffff"/>
    <path d="M174 144 492 52l318 92v54H174Z" fill="#1769d2"/>
    <rect x="220" y="214" width="540" height="52" rx="10" fill="#eef7fb"/>
    <rect x="220" y="284" width="540" height="52" rx="10" fill="#edf8f2"/>
    <rect x="220" y="354" width="540" height="52" rx="10" fill="#fff4dd"/>
    <rect x="220" y="424" width="540" height="50" rx="10" fill="#f9e7e6"/>
  </g>
  <g fill="#17324d" opacity=".9">
    <rect x="260" y="228" width="130" height="14" rx="7"/>
    <rect x="260" y="298" width="170" height="14" rx="7"/>
    <rect x="260" y="368" width="145" height="14" rx="7"/>
    <rect x="260" y="438" width="190" height="14" rx="7"/>
  </g>
  <g fill="#20a675">
    <circle cx="630" cy="240" r="17"/>
    <circle cx="680" cy="240" r="17"/>
    <circle cx="730" cy="240" r="17"/>
  </g>
  <g fill="#f0a52b">
    <rect x="606" y="302" width="38" height="22" rx="6"/>
    <rect x="658" y="294" width="38" height="30" rx="6"/>
    <rect x="710" y="286" width="38" height="38" rx="6"/>
  </g>
  <g stroke="#1769d2" stroke-width="5" fill="none" opacity=".68">
    <path d="M492 146v328"/>
    <path d="M492 240h96M492 310h84M492 380h118M492 448h74"/>
  </g>
  <g filter="url(#shadow)">
    <rect x="72" y="324" width="126" height="98" rx="18" fill="#17324d"/>
    <rect x="92" y="348" width="62" height="10" rx="5" fill="#ffffff"/>
    <rect x="92" y="372" width="82" height="10" rx="5" fill="#cce5f7"/>
  </g>
  <g filter="url(#shadow)">
    <rect x="756" y="330" width="132" height="92" rx="18" fill="#20a675"/>
    <circle cx="792" cy="376" r="18" fill="#ffffff"/>
    <rect x="822" y="358" width="42" height="10" rx="5" fill="#ffffff"/>
    <rect x="822" y="382" width="28" height="8" rx="4" fill="#e1fff3"/>
  </g>
  <path d="M0 0h960v560H0Z" fill="#0b1f35" opacity=".04"/>
</svg>
